<?xml version="1.0" encoding="UTF-8" standalone="no"?>
<svg
   xmlns:dc="http://purl.org/dc/elements/1.1/"
   xmlns:cc="http://creativecommons.org/ns#"
   xmlns:rdf="http://www.w3.org/1999/02/22-rdf-syntax-ns#"
   xmlns:svg="http://www.w3.org/2000/svg"
   xmlns="http://www.w3.org/2000/svg"
   xmlns:sodipodi="http://sodipodi.sourceforge.net/DTD/sodipodi-0.dtd"
   xmlns:inkscape="http://www.inkscape.org/namespaces/inkscape"
   inkscape:version="1.0 (4035a4fb49, 2020-05-01)"
   sodipodi:docname="emailIcon.svg"
   xml:space="preserve"
   viewBox="0 0 256 256"
   height="256"
   width="256"
   y="0px"
   x="0px"
   id="Capa_1"
   version="1.1"><metadata
   id="metadata45"><rdf:RDF><cc:Work
       rdf:about=""><dc:format>image/svg+xml</dc:format><dc:type
         rdf:resource="http://purl.org/dc/dcmitype/StillImage" /><dc:title></dc:title></cc:Work></rdf:RDF></metadata><defs
   id="defs43">
		
		
	</defs><sodipodi:namedview
   inkscape:current-layer="g8"
   inkscape:window-maximized="1"
   inkscape:window-y="-8"
   inkscape:window-x="-8"
   inkscape:cy="184.72997"
   inkscape:cx="83.275843"
   inkscape:zoom="1.0507812"
   fit-margin-bottom="0"
   fit-margin-right="0"
   fit-margin-left="0"
   fit-margin-top="0"
   showgrid="false"
   id="namedview41"
   inkscape:window-height="705"
   inkscape:window-width="1366"
   inkscape:pageshadow="2"
   inkscape:pageopacity="0"
   guidetolerance="10"
   gridtolerance="10"
   objecttolerance="10"
   borderopacity="1"
   bordercolor="#666666"
   pagecolor="#ffffff" />
<g
   transform="translate(-128,-128)"
   id="g8">
	<path
   style="opacity:0.996;mix-blend-mode:normal;fill:#4d4d4d;fill-opacity:1"
   d="m 315.844,198.359 c 0.172,-1.109 0.25,-2.141 0.25,-3.094 0,-8.797 -5.5,-13.172 -16.5,-13.172 -5.281,0 -8.844,0.906 -10.688,2.688 -1.875,1.812 -3.156,5.391 -3.906,10.75 -4.219,-5.938 -8.469,-9.938 -12.75,-12.016 -3.938,-1.891 -9.578,-2.828 -16.875,-2.828 -18.797,0 -35.109,9.562 -48.875,28.672 -12.688,17.578 -19.016,36.359 -19.016,56.329 0,15.594 4.109,29.28 12.344,41.094 9.125,13.016 21.062,19.516 35.766,19.516 12.594,0 24.688,-4.516 36.266,-13.547 5.22,9.031 14.142,13.547 26.734,13.547 23.844,0 44.267,-10.062 61.219,-30.203 C 375.938,276.938 384,254.906 384,230.031 384,200.281 371.484,175.469 346.453,155.609 323.266,137.219 296.75,128 266.844,128 c -38.906,0 -71.562,12.297 -98.016,36.906 -27.219,25.375 -40.828,57.75 -40.828,97.156 0,40.266 13.953,71.188 41.828,92.78 25.031,19.455 57.86,29.158 98.516,29.158 17.312,0 34.188,-2.703 50.656,-8.141 18.062,-5.922 32.922,-14.359 44.594,-25.297 3.767,-3.609 7.392,-8 10.828,-13.156 4.297,-6.297 6.422,-11.375 6.422,-15.234 0,-2.922 -1.016,-5.531 -3.078,-7.828 -2.047,-2.281 -4.516,-3.422 -7.358,-3.422 -5.392,0 -9.922,1.906 -13.625,5.672 -6.109,6.562 -10.656,11.562 -13.595,15 -20,17.469 -44.844,26.203 -74.594,26.203 -31.906,0 -57.438,-7.828 -76.578,-23.484 -20.922,-17.108 -31.375,-41.625 -31.375,-73.53 0,-30.969 9.938,-56.844 29.859,-77.625 C 210.406,162.391 235.484,152 265.703,152 c 23.781,0 43.547,6.75 59.328,20.281 16.906,14.344 25.328,33.438 25.328,57.25 0,12.469 -2.125,24.094 -6.422,34.828 -4.781,12.047 -11.72,21.328 -20.781,27.858 -6.812,4.892 -12.142,7.345 -16,7.345 -4.203,0 -6.297,-1.97 -6.297,-5.922 0,-1.642 1.078,-9.203 3.281,-22.72 z m -48.5,71.219 c -7.734,21.453 -15.969,32.188 -24.688,32.188 -13.031,0 -19.547,-8.312 -19.547,-24.953 0,-12.922 3.734,-27.469 11.234,-43.688 8.734,-19.141 18.672,-28.703 29.845,-28.703 4.625,0 8.062,2.5 10.328,7.484 1.844,3.812 2.766,8.344 2.766,13.594 -10e-4,11.219 -3.298,25.906 -9.938,44.078 z"
   id="path4" />
</g>
<g
   transform="translate(-128,-128)"
   id="g10">
</g>
<g
   transform="translate(-128,-128)"
   id="g12">
</g>
<g
   transform="translate(-128,-128)"
   id="g14">
</g>
<g
   transform="translate(-128,-128)"
   id="g16">
</g>
<g
   transform="translate(-128,-128)"
   id="g18">
</g>
<g
   transform="translate(-128,-128)"
   id="g20">
</g>
<g
   transform="translate(-128,-128)"
   id="g22">
</g>
<g
   transform="translate(-128,-128)"
   id="g24">
</g>
<g
   transform="translate(-128,-128)"
   id="g26">
</g>
<g
   transform="translate(-128,-128)"
   id="g28">
</g>
<g
   transform="translate(-128,-128)"
   id="g30">
</g>
<g
   transform="translate(-128,-128)"
   id="g32">
</g>
<g
   transform="translate(-128,-128)"
   id="g34">
</g>
<g
   transform="translate(-128,-128)"
   id="g36">
</g>
<g
   transform="translate(-128,-128)"
   id="g38">
</g>
</svg>
