<?xml version="1.0" encoding="UTF-8" standalone="no"?>
<svg
   xmlns:dc="http://purl.org/dc/elements/1.1/"
   xmlns:cc="http://creativecommons.org/ns#"
   xmlns:rdf="http://www.w3.org/1999/02/22-rdf-syntax-ns#"
   xmlns:svg="http://www.w3.org/2000/svg"
   xmlns="http://www.w3.org/2000/svg"
   xmlns:sodipodi="http://sodipodi.sourceforge.net/DTD/sodipodi-0.dtd"
   xmlns:inkscape="http://www.inkscape.org/namespaces/inkscape"
   inkscape:version="1.0 (4035a4fb49, 2020-05-01)"
   sodipodi:docname="passwordlIcon.svg"
   id="svg4"
   version="1.1"
   viewBox="0 0 24 14"
   height="14"
   width="24">
  <metadata
     id="metadata10">
    <rdf:RDF>
      <cc:Work
         rdf:about="">
        <dc:format>image/svg+xml</dc:format>
        <dc:type
           rdf:resource="http://purl.org/dc/dcmitype/StillImage" />
        <dc:title></dc:title>
      </cc:Work>
    </rdf:RDF>
  </metadata>
  <defs
     id="defs8" />
  <sodipodi:namedview
     inkscape:current-layer="svg4"
     inkscape:window-maximized="1"
     inkscape:window-y="-8"
     inkscape:window-x="-8"
     inkscape:cy="7"
     inkscape:cx="12"
     inkscape:zoom="22.416667"
     fit-margin-bottom="0"
     fit-margin-right="0"
     fit-margin-left="0"
     fit-margin-top="0"
     showgrid="false"
     id="namedview6"
     inkscape:window-height="705"
     inkscape:window-width="1366"
     inkscape:pageshadow="2"
     inkscape:pageopacity="0"
     guidetolerance="10"
     gridtolerance="10"
     objecttolerance="10"
     borderopacity="1"
     bordercolor="#666666"
     pagecolor="#ffffff" />
  <path
     style="fill:#333333;fill-opacity:1"
     id="path2"
     d="M 20,10 V 8 h 1 C 21.552285,8 22,7.552285 22,7 22,6.447715 21.552285,6 21,6 H 11.951412 L 11.715749,5.333246 C 11.015471,3.3519786 9.136149,2 7,2 4.2385763,2 2,4.2385763 2,7 c 0,2.761424 2.2385763,5 5,5 2.136149,0 4.015471,-1.351979 4.715749,-3.333246 L 11.951412,8 H 18 v 2 z m 2,2 H 16 V 10 H 13.326396 C 12.185243,12.406419 9.7441534,14 7,14 3.1340068,14 0,10.865993 0,7 0,3.1340067 3.1340068,0 7,0 9.7441534,0 12.185243,1.5935806 13.326396,4 H 21 c 1.656854,0 3,1.343146 3,3 0,1.306219 -0.834808,2.417458 -2,2.829294 z M 7,9 C 8.1045695,9 9,8.10457 9,7 9,5.895431 8.1045695,5 7,5 5.8954305,5 5,5.895431 5,7 5,8.10457 5.8954305,9 7,9 Z" />
</svg>
