<?xml version="1.0" encoding="UTF-8" standalone="no"?>
<svg
   xmlns:dc="http://purl.org/dc/elements/1.1/"
   xmlns:cc="http://creativecommons.org/ns#"
   xmlns:rdf="http://www.w3.org/1999/02/22-rdf-syntax-ns#"
   xmlns:svg="http://www.w3.org/2000/svg"
   xmlns="http://www.w3.org/2000/svg"
   xmlns:sodipodi="http://sodipodi.sourceforge.net/DTD/sodipodi-0.dtd"
   xmlns:inkscape="http://www.inkscape.org/namespaces/inkscape"
   inkscape:version="1.0 (4035a4fb49, 2020-05-01)"
   sodipodi:docname="reactlogo.svg"
   id="svg65"
   version="1.1"
   height="52.043919"
   width="58"
   viewBox="0 0 58 52.043919">
  <metadata
     id="metadata71">
    <rdf:RDF>
      <cc:Work
         rdf:about="">
        <dc:format>image/svg+xml</dc:format>
        <dc:type
           rdf:resource="http://purl.org/dc/dcmitype/StillImage" />
        <dc:title></dc:title>
      </cc:Work>
    </rdf:RDF>
  </metadata>
  <defs
     id="defs69" />
  <sodipodi:namedview
     inkscape:current-layer="svg65"
     inkscape:window-maximized="1"
     inkscape:window-y="-8"
     inkscape:window-x="-8"
     inkscape:cy="30.780283"
     inkscape:cx="29"
     inkscape:zoom="8.40625"
     fit-margin-bottom="0"
     fit-margin-right="0"
     fit-margin-left="0"
     fit-margin-top="0"
     showgrid="false"
     id="namedview67"
     inkscape:window-height="705"
     inkscape:window-width="1366"
     inkscape:pageshadow="2"
     inkscape:pageopacity="0"
     guidetolerance="10"
     gridtolerance="10"
     objecttolerance="10"
     borderopacity="1"
     bordercolor="#666666"
     pagecolor="#ffffff" />
  <radialGradient
     gradientUnits="userSpaceOnUse"
     gradientTransform="translate(0,-1726)"
     r="32"
     cy="1758"
     cx="32"
     id="rQqjnSUGxprE2SEHQ~MXka">
    <stop
       id="stop2"
       stop-color="#f4e9c3"
       offset="0" />
    <stop
       id="stop4"
       stop-color="#f8eecd"
       offset=".219" />
    <stop
       id="stop6"
       stop-color="#fdf4dc"
       offset=".644" />
    <stop
       id="stop8"
       stop-color="#fff6e1"
       offset="1" />
  </radialGradient>
  <linearGradient
     gradientTransform="translate(-3,-5.9780814)"
     gradientUnits="userSpaceOnUse"
     y2="7.25"
     y1="58.446999"
     x2="32"
     x1="32"
     id="rQqjnSUGxprE2SEHQ~MXkb">
    <stop
       id="stop13"
       stop-color="#155cde"
       offset="0" />
    <stop
       id="stop15"
       stop-color="#1f7fe5"
       offset=".278" />
    <stop
       id="stop17"
       stop-color="#279ceb"
       offset=".569" />
    <stop
       id="stop19"
       stop-color="#2cafef"
       offset=".82" />
    <stop
       id="stop21"
       stop-color="#2eb5f0"
       offset="1" />
  </linearGradient>
  <path
     style="fill:#61daf0;fill-opacity:1"
     id="path24"
     d="m 29,39.021919 c -16.533,0 -29,-5.589 -29,-13 0,-7.411 12.467,-13 29,-13 16.532,0 29,5.589 29,13 0,7.411 -12.468,13 -29,13 z m 0,-22 c -14.309,0 -25,4.751 -25,9 0,4.248 10.691,9 25,9 14.309,0 25,-4.752 25,-9 0,-4.249 -10.691,-9 -25,-9 z"
     fill="url(#rQqjnSUGxprE2SEHQ~MXkb)" />
  <linearGradient
     gradientTransform="translate(-3,-5.9780814)"
     gradientUnits="userSpaceOnUse"
     y2="5.21"
     y1="58.191002"
     x2="31.999001"
     x1="31.999001"
     id="rQqjnSUGxprE2SEHQ~MXkc">
    <stop
       id="stop26"
       stop-color="#155cde"
       offset="0" />
    <stop
       id="stop28"
       stop-color="#1f7fe5"
       offset=".278" />
    <stop
       id="stop30"
       stop-color="#279ceb"
       offset=".569" />
    <stop
       id="stop32"
       stop-color="#2cafef"
       offset=".82" />
    <stop
       id="stop34"
       stop-color="#2eb5f0"
       offset="1" />
  </linearGradient>
  <path
     style="fill:#61daf0;fill-opacity:1"
     id="path37"
     d="m 39.969,52.043919 c -2.744,0 -5.962,-1.361 -9.386,-4.021 -4.549,-3.533 -9.109,-9.038 -12.842,-15.503 C 9.475,18.202919 8.081,4.6119186 14.499,0.90591864 v 0 C 20.916,-2.8000814 31.991,5.2029186 40.258,19.519919 c 3.732,6.465 6.22,13.167 7.005,18.872 0.869,6.314 -0.468,10.84 -3.764,12.742 -1.054,0.61 -2.24,0.91 -3.53,0.91 z M 16.499,4.3709186 c -3.679,2.124 -2.448,13.7590004 4.706,26.1500004 3.48,6.027 7.682,11.121 11.831,14.344 3.559,2.763 6.721,3.815 8.463,2.806 1.742,-1.005 2.415,-4.27 1.801,-8.732 -0.716,-5.204 -3.026,-11.39 -6.507,-17.417 C 29.64,9.1309186 20.183,2.2499186 16.499,4.3709186 Z"
     fill="url(#rQqjnSUGxprE2SEHQ~MXkc)" />
  <linearGradient
     gradientTransform="translate(-3,-5.9780814)"
     gradientUnits="userSpaceOnUse"
     y2="5.9330001"
     y1="57.808998"
     x2="32"
     x1="32"
     id="rQqjnSUGxprE2SEHQ~MXkd">
    <stop
       id="stop39"
       stop-color="#155cde"
       offset="0" />
    <stop
       id="stop41"
       stop-color="#1f7fe5"
       offset=".278" />
    <stop
       id="stop43"
       stop-color="#279ceb"
       offset=".569" />
    <stop
       id="stop45"
       stop-color="#2cafef"
       offset=".82" />
    <stop
       id="stop47"
       stop-color="#2eb5f0"
       offset="1" />
  </linearGradient>
  <path
     style="fill:#61daf0;fill-opacity:1"
     id="path50"
     d="m 18.01,52.038919 c -1.274,0 -2.456,-0.292 -3.511,-0.901 -3.295,-1.903 -4.632,-6.428 -3.763,-12.742 0.785,-5.706 3.272,-12.408 7.005,-18.872 v 0 c 3.732,-6.464 8.293,-11.9700004 12.842,-15.5020004 5.032,-3.90999996 9.619,-5.01599996 12.916,-3.11199996 3.296,1.90199996 4.633,6.42799996 3.764,12.74200036 -0.785,5.706 -3.272,12.408 -7.005,18.872 -6.907,11.961 -15.774,19.515 -22.248,19.515 z m 3.195,-30.516 c -3.479,6.026 -5.79,12.212 -6.506,17.417 -0.614,4.463 0.059,7.728 1.8,8.732 3.681,2.129 13.141,-4.758 20.294,-17.149 3.48,-6.027 5.791,-12.212 6.507,-17.417 0.614,-4.4620004 -0.059,-7.7270004 -1.801,-8.7330004 -1.738,-1.004 -4.904,0.044 -8.463,2.807 -4.149,3.2220004 -8.351,8.3160004 -11.831,14.3430004 z"
     fill="url(#rQqjnSUGxprE2SEHQ~MXkd)" />
  <linearGradient
     gradientUnits="userSpaceOnUse"
     gradientTransform="matrix(1,0,0,-1,-3,60.021919)"
     y2="39"
     y1="29"
     x2="32"
     x1="32"
     id="rQqjnSUGxprE2SEHQ~MXke">
    <stop
       id="stop52"
       stop-color="#155cde"
       offset="0" />
    <stop
       id="stop54"
       stop-color="#1f7fe5"
       offset=".278" />
    <stop
       id="stop56"
       stop-color="#279ceb"
       offset=".569" />
    <stop
       id="stop58"
       stop-color="#2cafef"
       offset=".82" />
    <stop
       id="stop60"
       stop-color="#2eb5f0"
       offset="1" />
  </linearGradient>
  <circle
     style="fill:#61daf0;fill-opacity:1"
     id="circle63"
     fill="url(#rQqjnSUGxprE2SEHQ~MXke)"
     r="5"
     cy="26.021919"
     cx="29" />
</svg>
