<?xml version="1.0" encoding="UTF-8" standalone="no"?>
<svg
   xmlns:dc="http://purl.org/dc/elements/1.1/"
   xmlns:cc="http://creativecommons.org/ns#"
   xmlns:rdf="http://www.w3.org/1999/02/22-rdf-syntax-ns#"
   xmlns:svg="http://www.w3.org/2000/svg"
   xmlns="http://www.w3.org/2000/svg"
   xmlns:sodipodi="http://sodipodi.sourceforge.net/DTD/sodipodi-0.dtd"
   xmlns:inkscape="http://www.inkscape.org/namespaces/inkscape"
   enable-background="new 0 0 32 32"
   version="1.1"
   viewBox="0 0 32 32"
   xml:space="preserve"
   id="svg7"
   sodipodi:docname="applyTaskIcon.svg"
   inkscape:version="1.0 (4035a4fb49, 2020-05-01)"><metadata
     id="metadata13"><rdf:RDF><cc:Work
         rdf:about=""><dc:format>image/svg+xml</dc:format><dc:type
           rdf:resource="http://purl.org/dc/dcmitype/StillImage" /></cc:Work></rdf:RDF></metadata><defs
     id="defs11" /><sodipodi:namedview
     inkscape:document-rotation="0"
     pagecolor="#ffffff"
     bordercolor="#666666"
     borderopacity="1"
     objecttolerance="10"
     gridtolerance="10"
     guidetolerance="10"
     inkscape:pageopacity="0"
     inkscape:pageshadow="2"
     inkscape:window-width="1920"
     inkscape:window-height="1017"
     id="namedview9"
     showgrid="false"
     inkscape:zoom="6.640625"
     inkscape:cx="-5.8117939"
     inkscape:cy="38.387656"
     inkscape:window-x="-8"
     inkscape:window-y="-8"
     inkscape:window-maximized="1"
     inkscape:current-layer="svg7" /><path
     d="m 31.941,6.458482 c -1.586,-1.333 -3.173,-2.667 -4.759,-4 -0.186,-0.156 -0.736,-0.235 -0.915,-0.025 -5.022,5.908 -10.045,11.815 -15.067,17.722 -1.993,-1.876 -3.986,-3.752 -5.979,-5.628 -0.184,-0.173 -0.729,-0.219 -0.915,-0.025 -1.428,1.5 -2.856,3 -4.284,4.5 -0.051,0.054 -10e-4,0.12 0.038,0.158 3.762,3.541 7.524,7.082 11.285,10.622 0.058,0.055 0.187,0.085 0.329,0.097 0.229,0.044 0.492,0.037 0.586,-0.073 6.573,-7.73 13.146,-15.46 19.719,-23.191 0.047,-0.054 0.007,-0.119 -0.038,-0.157 z m -1.563,0.738 c -2.215,2.391 -4.243,4.99 -6.355,7.473 -4.107,4.83 -8.214,9.66 -12.321,14.49 -2.735,-2.574 -5.47,-5.148 -8.205,-7.723 -0.652,-0.613 -1.361,-1.199 -1.97,-1.855 -0.535,-0.576 -0.45,-0.274 -0.343,-0.618 0.234,-0.758 1.722,-1.809 2.269,-2.383 0.462,-0.485 0.924,-0.97 1.386,-1.456 2.001,1.884 4.003,3.768 6.004,5.652 0.175,0.165 0.742,0.228 0.915,0.025 5.031,-5.916 10.062,-11.834 15.093,-17.751 1.133,0.952 2.265,1.904 3.398,2.856 0.838,0.705 0.905,0.452 0.129,1.29 z"
     id="path2"
     style="fill:#000000;fill-opacity:1" /><path
     style="opacity:0.996;fill:#1c7430;fill-opacity:1;stroke-width:0.0376471"
     d="M 7.5200808,25.192293 C 5.2237122,23.031683 3.1505428,21.087906 2.9130381,20.872788 2.6755334,20.65767 2.1788984,20.184205 1.8094049,19.820644 l -0.6718064,-0.66102 0.049595,-0.150275 c 0.1338845,-0.405673 0.5194062,-0.841422 1.5387236,-1.739194 0.3830588,-0.337382 1.0087881,-0.944807 1.3905095,-1.349833 0.3817213,-0.405026 0.7074081,-0.736411 0.7237482,-0.736411 0.01634,0 1.3855887,1.2769 3.0427742,2.837556 2.651506,2.497059 3.033276,2.843215 3.181498,2.884715 0.225401,0.06311 0.559714,0.03318 0.664006,-0.05944 0.06879,-0.06109 4.256406,-4.977995 13.239485,-15.5451866 1.020909,-1.2009412 1.867982,-2.1875523 1.882384,-2.1924693 0.0144,-0.00492 0.763125,0.6110042 1.663831,1.3687135 0.900705,0.7577093 1.795663,1.5049377 1.988793,1.6605074 0.193131,0.1555697 0.360535,0.3073173 0.372008,0.3372167 0.03556,0.092667 -0.0438,0.2036567 -0.479572,0.6707376 -0.865857,0.9280583 -2.105853,2.3695477 -4.177627,4.8564707 -1.686979,2.025022 -14.183954,16.762933 -14.456133,17.048382 -0.06396,0.06708 -0.215204,-0.07052 -4.2415413,-3.858824 z"
     id="path860" /><path
     style="opacity:0.996;fill:#28a745;fill-opacity:1;stroke-width:0.150588"
     d="M 6.7623237,24.369383 C 4.1119708,21.883235 1.7809841,19.6887 1.5823533,19.492639 1.2220617,19.137008 1.2218834,19.135126 1.5070592,18.697771 1.6642782,18.456655 2.4847337,17.598587 3.3302937,16.790953 l 1.537382,-1.468425 2.9475066,2.757549 c 1.6211287,1.516652 3.0483217,2.813968 3.1715397,2.882924 0.123217,0.06896 0.357752,0.08293 0.521187,0.03106 0.163435,-0.05187 3.654966,-4.037181 7.758959,-8.856242 4.103993,-4.8190611 7.511554,-8.7795174 7.572357,-8.8010143 0.0608,-0.021497 0.974899,0.6803311 2.031323,1.5596179 1.677916,1.3965688 1.89661,1.6299885 1.729672,1.8461439 -0.105106,0.1360927 -0.670304,0.7895587 -1.255996,1.4521469 -0.585694,0.6625883 -2.921707,3.4070586 -5.191144,6.0988236 -7.574918,8.984567 -12.378944,14.607113 -12.475914,14.601588 -0.05281,-0.003 -2.2644894,-2.039594 -4.9148423,-4.525742 z"
     id="path862" /></svg>
