<?xml version="1.0" encoding="UTF-8" standalone="no"?>
<svg
   xmlns:dc="http://purl.org/dc/elements/1.1/"
   xmlns:cc="http://creativecommons.org/ns#"
   xmlns:rdf="http://www.w3.org/1999/02/22-rdf-syntax-ns#"
   xmlns:svg="http://www.w3.org/2000/svg"
   xmlns="http://www.w3.org/2000/svg"
   xmlns:sodipodi="http://sodipodi.sourceforge.net/DTD/sodipodi-0.dtd"
   xmlns:inkscape="http://www.inkscape.org/namespaces/inkscape"
   width="40"
   height="40"
   viewBox="0 0 40 40"
   version="1.1"
   id="svg6"
   sodipodi:docname="cancelEditIcon.svg"
   inkscape:version="1.0 (4035a4fb49, 2020-05-01)">
  <metadata
     id="metadata12">
    <rdf:RDF>
      <cc:Work
         rdf:about="">
        <dc:format>image/svg+xml</dc:format>
        <dc:type
           rdf:resource="http://purl.org/dc/dcmitype/StillImage" />
        <dc:title />
      </cc:Work>
    </rdf:RDF>
  </metadata>
  <defs
     id="defs10" />
  <sodipodi:namedview
     inkscape:document-rotation="0"
     pagecolor="#ffffff"
     bordercolor="#666666"
     borderopacity="1"
     objecttolerance="10"
     gridtolerance="10"
     guidetolerance="10"
     inkscape:pageopacity="0"
     inkscape:pageshadow="2"
     inkscape:window-width="1920"
     inkscape:window-height="1017"
     id="namedview8"
     showgrid="false"
     fit-margin-top="0"
     fit-margin-left="0"
     fit-margin-right="0"
     fit-margin-bottom="0"
     inkscape:zoom="17.708333"
     inkscape:cx="18.277647"
     inkscape:cy="20"
     inkscape:window-x="-8"
     inkscape:window-y="-8"
     inkscape:window-maximized="1"
     inkscape:current-layer="svg6" />
  <path
     style="fill:#ff0000"
     d="M 9.394531,34.847656 5.152344,30.605469 30.605469,5.152344 34.847656,9.394531 Z"
     id="path2" />
  <path
     style="fill:#ff0000;fill-rule:evenodd"
     d="m 5.859375,34.140625 c 7.808594,7.8125 20.472656,7.8125 28.28125,0 7.8125,-7.808594 7.8125,-20.472656 0,-28.28125 -7.808594,-7.8125 -20.472656,-7.8125 -28.28125,0 -7.8125,7.808594 -7.8125,20.472656 0,28.28125 z m 4.242187,-4.242187 c -5.46875,-5.464844 -5.46875,-14.332032 0,-19.796876 5.464844,-5.46875 14.332032,-5.46875 19.796876,0 5.46875,5.464844 5.46875,14.332032 0,19.796876 -5.464844,5.46875 -14.332032,5.46875 -19.796876,0 z"
     id="path4" />
</svg>
