<?xml version="1.0" encoding="UTF-8" standalone="no"?>
<svg
   xmlns:dc="http://purl.org/dc/elements/1.1/"
   xmlns:cc="http://creativecommons.org/ns#"
   xmlns:rdf="http://www.w3.org/1999/02/22-rdf-syntax-ns#"
   xmlns:svg="http://www.w3.org/2000/svg"
   xmlns="http://www.w3.org/2000/svg"
   xmlns:sodipodi="http://sodipodi.sourceforge.net/DTD/sodipodi-0.dtd"
   xmlns:inkscape="http://www.inkscape.org/namespaces/inkscape"
   width="18"
   height="18"
   viewBox="0 0 18 18"
   version="1.1"
   id="svg4"
   sodipodi:docname="checkboxDoneIcon.svg"
   inkscape:version="1.0 (4035a4fb49, 2020-05-01)">
  <metadata
     id="metadata10">
    <rdf:RDF>
      <cc:Work
         rdf:about="">
        <dc:format>image/svg+xml</dc:format>
        <dc:type
           rdf:resource="http://purl.org/dc/dcmitype/StillImage" />
        <dc:title />
      </cc:Work>
    </rdf:RDF>
  </metadata>
  <defs
     id="defs8" />
  <sodipodi:namedview
     inkscape:document-rotation="0"
     pagecolor="#ffffff"
     bordercolor="#666666"
     borderopacity="1"
     objecttolerance="10"
     gridtolerance="10"
     guidetolerance="10"
     inkscape:pageopacity="0"
     inkscape:pageshadow="2"
     inkscape:window-width="1920"
     inkscape:window-height="1017"
     id="namedview6"
     showgrid="false"
     fit-margin-top="0"
     fit-margin-left="0"
     fit-margin-right="0"
     fit-margin-bottom="0"
     inkscape:zoom="35.416667"
     inkscape:cx="9"
     inkscape:cy="7.8705882"
     inkscape:window-x="-8"
     inkscape:window-y="-8"
     inkscape:window-maximized="1"
     inkscape:current-layer="svg4" />
  <path
     d="M 3,2 C 2.4477152,2 2,2.4477152 2,3 v 12 c 0,0.552285 0.4477152,1 1,1 h 12 c 0.552285,0 1,-0.447715 1,-1 V 3 C 16,2.4477152 15.552285,2 15,2 Z M 3,0 h 12 c 1.656854,0 3,1.3431457 3,3 v 12 c 0,1.656854 -1.343146,3 -3,3 H 3 C 1.3431457,18 0,16.656854 0,15 V 3 C 0,1.3431457 1.3431457,0 3,0 Z m 4.85725,12.7765 -3.564,-3.564 c -0.391,-0.391 -0.391,-1.023 0,-1.414 0.391,-0.391 1.023,-0.391 1.414,0 l 2.15,2.15 4.436,-4.4359997 c 0.391,-0.39 1.023,-0.39 1.414,0 0.391,0.391 0.391,1.024 0,1.414 z"
     id="path2"
     style="fill:#28a745;fill-opacity:1" />
</svg>
