<?xml version="1.0" encoding="UTF-8" standalone="no"?>
<svg
   xmlns:dc="http://purl.org/dc/elements/1.1/"
   xmlns:cc="http://creativecommons.org/ns#"
   xmlns:rdf="http://www.w3.org/1999/02/22-rdf-syntax-ns#"
   xmlns:svg="http://www.w3.org/2000/svg"
   xmlns="http://www.w3.org/2000/svg"
   xmlns:sodipodi="http://sodipodi.sourceforge.net/DTD/sodipodi-0.dtd"
   xmlns:inkscape="http://www.inkscape.org/namespaces/inkscape"
   inkscape:version="1.0 (4035a4fb49, 2020-05-01)"
   sodipodi:docname="delete.svg"
   height="66.585999"
   width="66.585999"
   xml:space="preserve"
   viewBox="0 0 66.585999 66.585999"
   y="0px"
   x="0px"
   id="Layer_1"
   version="1.1"><metadata
   id="metadata13"><rdf:RDF><cc:Work
       rdf:about=""><dc:format>image/svg+xml</dc:format><dc:type
         rdf:resource="http://purl.org/dc/dcmitype/StillImage" /><dc:title></dc:title></cc:Work></rdf:RDF></metadata><defs
   id="defs11" /><sodipodi:namedview
   inkscape:current-layer="g6"
   inkscape:window-maximized="1"
   inkscape:window-y="-8"
   inkscape:window-x="-8"
   inkscape:cy="33.293"
   inkscape:cx="33.293"
   inkscape:zoom="10.625"
   fit-margin-bottom="0"
   fit-margin-right="0"
   fit-margin-left="0"
   fit-margin-top="0"
   showgrid="false"
   id="namedview9"
   inkscape:window-height="1017"
   inkscape:window-width="1920"
   inkscape:pageshadow="2"
   inkscape:pageopacity="0"
   guidetolerance="10"
   gridtolerance="10"
   objecttolerance="10"
   borderopacity="1"
   bordercolor="#666666"
   pagecolor="#ffffff" />
<g
   transform="translate(-6.707,-6.707)"
   id="g6">
	<polygon
   id="polygon2"
   points="6.707,64.286 30.993,40 6.707,15.714 15.714,6.707 40,30.993 64.286,6.707 73.293,15.714 49.007,40 73.293,64.286 64.286,73.293 40,49.007 15.714,73.293 "
   style="fill:#ff0000" />
	<path
   id="path4"
   d="M 15.714,7.414 39.292,30.992 40,31.7 40.707,30.993 64.286,7.414 l 8.3,8.3 L 49.007,39.293 48.3,40 l 0.707,0.707 23.578,23.579 -8.3,8.3 L 40.707,49.007 40,48.3 39.293,49.007 15.714,72.586 7.414,64.286 30.993,40.707 31.7,40 30.993,39.293 7.414,15.714 l 8.3,-8.3 M 64.286,6 40,30.286 15.714,6 6,15.714 30.286,40 6,64.286 15.714,74 40,49.714 64.286,74 74,64.286 49.714,40 74,15.714 Z"
   style="fill:#c74343" />
</g>
</svg>
